<?xml version="1.0" encoding="iso-8859-1"?>
<!-- Generator: Adobe Illustrator 19.0.0, SVG Export Plug-In . SVG Version: 6.00 Build 0)  -->
<svg version="1.1" id="Layer_1" xmlns="http://www.w3.org/2000/svg" xmlns:xlink="http://www.w3.org/1999/xlink" x="0px" y="0px"
	 viewBox="0 0 469.999 469.999" style="enable-background:new 0 0 469.999 469.999;" xml:space="preserve" fill="#fff">
<g>
	<g>
		<path d="M462.5,127.5h-4.602c-0.774-2.347-1.832-5.519-3.283-9.872l-5-15c-1.021-3.063-3.887-5.128-7.115-5.128H270
			c-3.229,0-6.095,2.066-7.115,5.128l-8.291,24.872H250c-4.143,0-7.5,3.358-7.5,7.5v40c0,4.142,3.357,7.5,7.5,7.5h5.281l0.883,15
			h-42.327l0.882-15H220c4.143,0,7.5-3.358,7.5-7.5v-40c0-4.142-3.357-7.5-7.5-7.5h-4.602c-0.774-2.347-1.832-5.519-3.283-9.872
			l-5-15c-1.021-3.063-3.887-5.128-7.115-5.128H27.5c-3.229,0-6.095,2.066-7.115,5.128L12.094,127.5H7.5c-4.143,0-7.5,3.358-7.5,7.5
			v40c0,4.142,3.357,7.5,7.5,7.5h5.281l6.765,115H17.5c-4.143,0-7.5,3.358-7.5,7.5v30c0,4.142,3.357,7.5,7.5,7.5H50V365
			c0,4.142,3.357,7.5,7.5,7.5s7.5-3.358,7.5-7.5v-22.5h97.5V365c0,4.142,3.357,7.5,7.5,7.5s7.5-3.358,7.5-7.5v-22.5H210
			c4.143,0,7.5-3.358,7.5-7.5v-30c0-4.142-3.357-7.5-7.5-7.5h-2.046l0.882-15h52.327l0.882,15H260c-4.143,0-7.5,3.358-7.5,7.5v30
			c0,4.142,3.357,7.5,7.5,7.5h32.5V365c0,4.142,3.357,7.5,7.5,7.5s7.5-3.358,7.5-7.5v-22.5H405V365c0,4.142,3.357,7.5,7.5,7.5
			s7.5-3.358,7.5-7.5v-22.5h32.5c4.143,0,7.5-3.358,7.5-7.5v-30c0-4.142-3.357-7.5-7.5-7.5h-2.046l6.764-115h5.281
			c4.143,0,7.5-3.358,7.5-7.5v-40C470,130.857,466.643,127.5,462.5,127.5z M275.405,112.5h161.689c1.369,4.107,3.329,9.987,5,15
			H270.406L275.405,112.5z M32.905,112.5h161.689c1.369,4.107,3.329,9.987,5,15H27.906L32.905,112.5z M50,327.5H25v-15h25V327.5z
			 M27.807,182.5h14.522l7.188,115H34.572L27.807,182.5z M162.5,327.5H65v-15h97.5V327.5z M162.953,297.5H64.546l-7.188-115h112.783
			L162.953,297.5z M171.265,164.534l-0.186,2.967H56.421l-0.186-2.968c-0.258-4.134-3.805-7.27-7.953-7.018
			c-4.134,0.258-7.276,3.819-7.018,7.953l0.127,2.033H15v-25h2.483c0.037,0,195.017,0,195.017,0v25h-26.392l0.127-2.031
			c0.259-4.135-2.883-7.696-7.017-7.954C175.084,157.249,171.524,160.4,171.265,164.534z M202.5,327.5h-25v-15h25V327.5z
			 M266.617,247.487c-4.135,0.244-7.29,3.792-7.047,7.928l0.711,12.085h-50.563l0.711-12.085c0.243-4.135-2.912-7.684-7.047-7.928
			c-4.14-0.249-7.685,2.912-7.928,7.047l-2.527,42.966h-14.945l7.188-115h14.521l-2.475,42.085
			c-0.243,4.135,2.912,7.684,7.047,7.928c0.15,0.009,0.299,0.013,0.447,0.013c3.94,0,7.246-3.075,7.48-7.06l0.763-12.966h44.092
			l0.763,12.966c0.234,3.985,3.54,7.06,7.48,7.06c0.148,0,0.298-0.004,0.447-0.013c4.135-0.243,7.29-3.792,7.047-7.927
			l-2.476-42.085h14.522l7.188,115h-14.945l-2.526-42.967C274.303,250.399,270.773,247.25,266.617,247.487z M292.5,327.5h-25v-15h25
			V327.5z M405,327.5h-97.5v-15H405V327.5z M405.453,297.5h-98.407l-7.188-115h112.783L405.453,297.5z M445,327.5h-25v-15h25V327.5z
			 M420.483,297.5l7.188-115h14.521l-6.764,115H420.483z M455,167.5h-26.392l0.127-2.031c0.259-4.135-2.883-7.696-7.017-7.954
			c-4.143-0.267-7.695,2.884-7.953,7.018l-0.186,2.967H298.921l-0.186-2.968c-0.258-4.134-3.813-7.27-7.953-7.018
			c-4.134,0.258-7.276,3.819-7.018,7.953l0.127,2.033H257.5v-25h2.483c0.037,0,195.017,0,195.017,0V167.5z"/>
	</g>
</g>
<g>
</g>
<g>
</g>
<g>
</g>
<g>
</g>
<g>
</g>
<g>
</g>
<g>
</g>
<g>
</g>
<g>
</g>
<g>
</g>
<g>
</g>
<g>
</g>
<g>
</g>
<g>
</g>
<g>
</g>
</svg>
