<?xml version="1.0" encoding="iso-8859-1"?>
<!-- Generator: Adobe Illustrator 19.0.0, SVG Export Plug-In . SVG Version: 6.00 Build 0)  -->
<svg version="1.1" id="Layer_1" xmlns="http://www.w3.org/2000/svg" xmlns:xlink="http://www.w3.org/1999/xlink" x="0px" y="0px"
	 viewBox="0 0 470 470" style="enable-background:new 0 0 470 470;" xml:space="preserve" fill=" #7c2729">
<g>
	<g>
		<g>
			<path d="M235,286.107c36.452,0,66.107-29.655,66.107-66.107c0-11.67-3.1-23.159-8.964-33.226
				c-2.086-3.579-6.677-4.788-10.256-2.705c-3.579,2.085-4.79,6.677-2.705,10.256c4.53,7.776,6.925,16.655,6.925,25.675
				c0,28.181-22.927,51.107-51.107,51.107S183.893,248.181,183.893,220c0-28.181,22.927-51.107,51.107-51.107
				c9.02,0,17.898,2.395,25.675,6.925c3.577,2.083,8.171,0.874,10.256-2.705c2.085-3.579,0.874-8.171-2.705-10.256
				c-10.066-5.864-21.556-8.964-33.226-8.964c-36.452,0-66.107,29.655-66.107,66.107C168.893,256.452,198.548,286.107,235,286.107z"
				/>
			<circle cx="339.5" cy="83" r="7.5"/>
			<circle cx="309.5" cy="53" r="7.5"/>
			<circle cx="130.5" cy="113" r="7.5"/>
			<path d="M385,0H85c-4.142,0-7.5,3.357-7.5,7.5v455c0,4.143,3.358,7.5,7.5,7.5h50c4.142,0,7.5-3.357,7.5-7.5V440h185v22.5
				c0,4.143,3.357,7.5,7.5,7.5h50c4.143,0,7.5-3.357,7.5-7.5V7.5C392.5,3.357,389.143,0,385,0z M127.5,455h-35v-15h35V455z
				 M377.5,455h-35v-15h35V455z M377.5,425h-285V15h285V425z"/>
			<circle cx="309.5" cy="357" r="7.5"/>
		</g>
	</g>
</g>
<g>
</g>
<g>
</g>
<g>
</g>
<g>
</g>
<g>
</g>
<g>
</g>
<g>
</g>
<g>
</g>
<g>
</g>
<g>
</g>
<g>
</g>
<g>
</g>
<g>
</g>
<g>
</g>
<g>
</g>
</svg>
