<?xml version="1.0" encoding="utf-8"?>
<!-- Generator: Adobe Illustrator 25.0.0, SVG Export Plug-In . SVG Version: 6.00 Build 0)  -->
<svg version="1.1" id="Layer_1" xmlns="http://www.w3.org/2000/svg" xmlns:xlink="http://www.w3.org/1999/xlink" x="0px" y="0px"
	 viewBox="0 0 1920 1080" style="enable-background:new 0 0 1920 1080;" xml:space="preserve">
<style type="text/css">
	.st0{fill:#29ABE2;}
</style>
<g>
	<path d="M861.64,636.06v17.99h-4.92v-17.58c0-7.69-2.51-9.99-7.9-9.99h-6.43v27.57h-11.14v-3.82h6.43v-23.75h-4.66v-3.82h16.84
		C857.92,622.67,861.64,625.96,861.64,636.06z"/>
	<path d="M870.38,640.45v-17.78h4.92v17.78H870.38z"/>
	<path d="M908.72,636v4.71c0,9.57-3.4,13.34-12.19,13.34h-12.4v-3.82h11.46c6.22,0,8.26-2.93,8.26-9.99v-3.77
		c0-7.06-2.04-9.99-8.26-9.99h-6.75v12.66h-4.71v-16.48h12.4C905.32,622.67,908.72,626.43,908.72,636z"/>
	<path d="M930.79,637.31c0-8.53-2.2-10.83-8.74-10.83h-7.95v-3.82h9c9.21,0,12.61,3.29,12.61,14.23v17.16h-4.92V637.31z"/>
	<path d="M942.46,654.05h-1.78v-3.82h1.78c6.38,0,8.89-4.39,8.16-10.51l-1.52-13.23h-6.12v-3.82h10.15l4.29,31.38h-4.71l-0.94-7.58
		h-0.21C950.67,651.17,947.59,654.05,942.46,654.05z"/>
	<path d="M1006.96,636.06v17.99h-4.92v-17.58c0-7.69-2.51-9.99-7.9-9.99h-6.43v27.57h-11.14v-3.82H983v-23.75h-4.66v-3.82h16.84
		C1003.24,622.67,1006.96,625.96,1006.96,636.06z"/>
	<path d="M1040.49,650.23v3.82h-26.36v-3.82h17.21v-23.75h-17.21v-3.82h22.13v27.57H1040.49z"/>
	<path d="M1044.94,650.23h17.37l-19.3-27.57h5.07l10.93,15.74c2.93-0.58,5.28-1.99,5.28-6.33v-9.42h4.92v9.94
		c0,6.17-3.82,8.42-7.85,9.21l8.53,12.24h-24.95V650.23z"/>
	<path d="M1099.81,622.67v15.38c0,8.74-3.45,12.76-12.14,15.12l-12.4,3.45l-0.94-3.71l7.32-2.09l-5.86-28.14h4.92l5.44,26.88
		l0.68-0.21c6.22-1.73,8.06-4.39,8.06-11.4v-15.27H1099.81z"/>
	<path d="M1133.71,637.47v16.58h-14.59v-3.82h9.68v-12.66c0-8.37-2.3-11.09-8.53-11.09h-3.61l-4.81,27.57h-4.97l4.97-27.57h-4.76
		v-3.82h14.02C1130.05,622.67,1133.71,626.54,1133.71,637.47z"/>
</g>
<polygon class="st0" points="1201.34,461.33 1188.56,548.83 1232.27,548.83 1216.23,461.33 "/>
<g>
	<path d="M838.66,458.11v131.76c0,6.82-4.04,11.11-10.6,11.11c-6.82,0-10.6-4.29-10.6-11.11v-61.84h-44.42v61.84
		c0,6.82-3.79,11.11-10.6,11.11c-6.56,0-10.6-4.29-10.6-11.11V458.11c0-6.81,4.04-10.85,10.6-10.85c6.82,0,10.6,4.04,10.6,10.85
		v53.76h44.42v-53.76c0-6.81,3.79-10.85,10.6-10.85C834.62,447.26,838.66,451.3,838.66,458.11z"/>
	<path d="M862.89,559.84v-71.69c0-29.53,12.87-41.14,40.89-41.14c28.27,0,41.14,11.61,41.14,41.14v71.69
		c0,29.78-12.87,41.14-41.14,41.14C875.76,600.98,862.89,589.62,862.89,559.84z M923.72,559.84v-71.69
		c0-17.92-6.31-24.74-19.94-24.74c-13.63,0-19.69,6.81-19.69,24.74v71.69c0,17.92,6.06,24.74,19.69,24.74
		C917.41,584.57,923.72,577.76,923.72,559.84z"/>
	<path d="M1050.68,497.49v52c0,37.86-11.11,50.23-44.17,50.23h-28.52c-5.05,0-8.83-3.79-8.83-8.58V456.85c0-4.8,3.79-8.58,8.83-8.58
		h28.52C1039.57,448.27,1050.68,460.13,1050.68,497.49z M1029.47,497.49c0-25.24-5.55-32.81-22.97-32.81h-16.15v118.63h16.15
		c17.42,0,22.97-8.08,22.97-33.82V497.49z"/>
	<path d="M1150.38,462.15l-30.79,73.7v54.02c0,7.07-4.04,11.36-10.6,11.36c-6.81,0-10.6-4.29-10.6-11.36v-54.02l-30.54-73.45
		c-3.03-6.56-0.76-12.87,5.05-14.89c5.55-2.02,11.11,0.76,13.38,7.07l22.72,62.09l22.72-62.09c2.27-6.31,8.08-9.34,13.63-7.07
		C1151.13,449.53,1153.15,455.84,1150.38,462.15z"/>
	<path d="M1240.73,600.98c-6.56,0.76-11.11-2.78-12.12-9.09l-5.81-31.05h-35.59l-5.81,31.05c-1.01,6.31-5.55,10.1-11.86,9.09
		c-6.56-1.26-9.59-6.06-8.08-13.13l28.77-131.25c1.01-5.55,4.8-8.33,10.35-8.33h8.83c5.55,0,9.34,2.78,10.35,8.33l28.78,131.25
		C1250.07,594.92,1247.04,600.22,1240.73,600.98z M1220.04,544.69l-14.89-80.27l-14.89,80.27H1220.04z"/>
	<path d="M1342.2,462.15l-30.79,73.7v54.02c0,7.07-4.04,11.36-10.6,11.36c-6.81,0-10.6-4.29-10.6-11.36v-54.02l-30.54-73.45
		c-3.03-6.56-0.76-12.87,5.05-14.89c5.55-2.02,11.11,0.76,13.38,7.07l22.72,62.09l22.72-62.09c2.27-6.31,8.08-9.34,13.63-7.07
		C1342.96,449.53,1344.98,455.84,1342.2,462.15z"/>
</g>
<g>
	<path d="M727.11,580.55c6.54,0,8.88,2.29,8.88,9.13v4.49c0,0.98-0.73,1.71-1.66,1.71h-25.96c-0.93,0-1.66-0.73-1.66-1.71v-4.39
		c0-5.95,1.95-8.25,7.32-8.25c3.07,0,4.78,1.27,5.71,3.27C720.67,581.96,722.77,580.55,727.11,580.55z M709.84,591.77h8.64v-2
		c0-3.03-1.22-4.15-4.44-4.15c-3.12,0-4.2,1.17-4.2,4.15V591.77z M727.11,584.65c-4.25,0-5.61,1.17-5.61,5.12v2h11.37v-2.1
		C732.87,585.77,731.41,584.65,727.11,584.65z"/>
	<path d="M732.82,564.79c0-1.03,0.59-1.61,1.61-1.61c0.98,0,1.56,0.59,1.56,1.61v9.95c0,0.88-0.68,1.61-1.61,1.61h-26.06
		c-0.93,0-1.61-0.73-1.61-1.61v-9.71c0-1.07,0.58-1.61,1.56-1.61c1.02,0,1.61,0.54,1.61,1.61v7.22h8.69v-6.83
		c0-1.02,0.59-1.61,1.56-1.61c0.93,0,1.51,0.59,1.51,1.61v6.83h11.17V564.79z"/>
	<path d="M706.57,545.37c0-1.22,0.78-1.95,2.1-1.95h25.28c1.27,0,2.05,0.78,2.05,2.1v0.83c0,1.17-0.49,1.9-1.61,2.29l-19.81,6.98
		h19.52c1.32,0,2.1,0.73,2.1,1.9c0,1.22-0.78,1.95-2.1,1.95h-25.33c-1.32,0-2.05-0.73-2.05-2.1v-0.83c0-1.17,0.49-1.9,1.61-2.29
		l19.81-6.98h-19.47C707.35,547.27,706.57,546.54,706.57,545.37z"/>
	<path d="M708.62,514.09h25.47c1.32,0,2.15,0.78,2.15,2.05c0,1.32-0.83,2.05-2.15,2.05h-11.96v8.59h11.96
		c1.32,0,2.15,0.73,2.15,2.05c0,1.27-0.83,2.05-2.15,2.05h-25.47c-1.32,0-2.1-0.78-2.1-2.05c0-1.32,0.78-2.05,2.1-2.05h10.39v-8.59
		h-10.39c-1.32,0-2.1-0.73-2.1-2.05C706.52,514.87,707.3,514.09,708.62,514.09z"/>
	<path d="M736.24,495.2c0.15,1.27-0.54,2.15-1.76,2.34l-6,1.12v6.88l6,1.12c1.22,0.2,1.95,1.07,1.76,2.29
		c-0.24,1.27-1.17,1.85-2.54,1.56l-25.37-5.56c-1.07-0.19-1.61-0.93-1.61-2v-1.71c0-1.07,0.54-1.81,1.61-2l25.37-5.56
		C735.07,493.4,736.09,493.98,736.24,495.2z M725.36,499.2l-15.52,2.88l15.52,2.88V499.2z"/>
	<path d="M708.96,467.92h25.13c1.32,0,2.15,0.73,2.15,1.95c0,1.22-0.83,1.95-2.15,1.95h-21.13l15.13,4.73
		c1.17,0.34,1.56,0.88,1.56,2.1v0.68c0,1.22-0.39,1.76-1.56,2.1l-15.13,4.73h21.13c1.32,0,2.15,0.73,2.15,1.95c0,1.27-0.83,2-2.15,2
		h-25.13c-1.42,0-2.24-0.88-2.24-2.59v-1.17c0-1.46,0.44-2.05,1.51-2.34l16.01-5.03l-16.01-4.98c-1.07-0.34-1.51-0.93-1.51-2.34
		v-1.22C706.71,468.75,707.54,467.92,708.96,467.92z"/>
	<path d="M728.28,463.19h-13.86c-5.71,0-7.95-2.49-7.95-7.91c0-5.47,2.24-7.95,7.95-7.95h13.86c5.76,0,7.95,2.49,7.95,7.95
		C736.24,460.7,734.04,463.19,728.28,463.19z M728.28,451.43h-13.86c-3.46,0-4.78,1.22-4.78,3.85s1.32,3.81,4.78,3.81h13.86
		c3.46,0,4.78-1.17,4.78-3.81S731.75,451.43,728.28,451.43z"/>
</g>
<g>
	<path d="M1169.36,618.14c0.57-8.95-1.11,44.84-0.6,35.89"/>
	<g>
		<path d="M1178.36,618.14c0.12-1.88-0.15,1.11-0.23,1.39c-5.48,0.72-10.97,1.43-16.45,2.15c0,0,0.01,0.01,0.01,0.01
			c-0.41-1.51-0.82-3.03-1.23-4.54c0.78,6.5-0.24,13.66-0.41,20.18c-0.11,4.21-0.22,8.41-0.31,12.62c-0.07,3.11-0.54,6.86,1.17,9.63
			c3.92,6.32,14.62,5.63,16.45-2.15c0.25-1.07,0.33-2.28,0.4-3.4c0.69-11.57-17.31-11.53-18,0c-0.07,1.22-0.55,1.99,0.24-1.39
			c5.48-0.72,10.97-1.43,16.45-2.15c0,0,0-0.01-0.01-0.01c0.41,1.51,0.82,3.03,1.23,4.54c-0.61-6.58,0.27-13.59,0.44-20.18
			c0.11-4.21,0.22-8.41,0.3-12.62c0.06-2.85,0.63-7.26-1.19-9.63c-4.5-5.85-14.17-5.96-16.45,2.15c-0.29,1.04-0.34,2.28-0.41,3.4
			C1159.59,629.71,1177.59,629.66,1178.36,618.14L1178.36,618.14z"/>
	</g>
</g>
<g>
	<path d="M1240.37,616.17c-0.58-9.18,1.18,45.97,0.65,36.79"/>
	<g>
		<path d="M1249.37,616.17c-0.07-1.12-0.16-2.38-0.41-3.42c-1.49-6.19-8.15-7.59-13.22-5.38c-7.25,3.16-4.27,19.13-4.12,25.12
			c0.18,6.97,1.25,14.55,0.49,21.5c1.49-2.59,2.97-5.18,4.46-7.77c0,0,0,0-0.01,0c4.41,1.79,8.81,3.59,13.22,5.38
			c0.14,0.71,0.35,3.27,0.24,1.36c-0.69-11.51-18.69-11.59-18,0c0.07,1.15,0.17,2.28,0.4,3.42c1.19,5.91,8.44,7.96,13.22,5.38
			c7.11-3.84,4.27-18.2,4.1-24.71c-0.12-4.73-0.25-9.46-0.36-14.18c-0.04-1.71-0.08-3.42-0.11-5.12c-0.02-1.28,0.32-4.74-0.32-0.21
			c-1.38,1.79-2.76,3.59-4.14,5.38c0,0,0.01,0,0.01,0c-4.41-1.79-8.81-3.59-13.22-5.38c-0.17-0.7-0.36-3.28-0.23-1.36
			C1232.13,627.67,1250.13,627.75,1249.37,616.17L1249.37,616.17z"/>
	</g>
</g>
</svg>
